<?xml version="1.0" standalone="yes"?>
<svg xmlns="http://www.w3.org/2000/svg" width="16" height="16">
<path style="fill:#edebea; stroke:none;" d="M0 0L1 15C4.69455 14.6363 11.5957 16.589 14.6667 14.2778C17.9428 11.8121 16.9187 0.839714 13 0C13.8327 1.96518 14.6971 3.83968 14.8511 6.00463C15.7948 19.2711 -4.99076 12.8674 4 1L0 0z"/>
<path style="fill:#c8cfd9; stroke:none;" d="M4 0L4 1L13 1L4 0M2 1L3 2L2 1z"/>
<path style="fill:#6e8bb2; stroke:none;" d="M14 13L14 12L3 12L3 2L12 2L12 4L4 3L4 11L13 11L14 1C9.41268 1 -5.85563 4.48053 3.6034 11.9722C6.05095 13.9107 11.0726 13 14 13z"/>
<path style="fill:#5376a7; stroke:none;" d="M3 2C3 5.76747 1.58719 11.0544 6 12L6 11C3.83527 8.12796 3.83527 5.87204 6 3L3 2z"/>
<path style="fill:#010101; stroke:none;" d="M5 3L5 4L12 4L5 3z"/>
<path style="fill:#5376a7; stroke:none;" d="M11 2L12 3L11 2M13 2L11 11L11 12C15.1754 11.1053 14.8016 5.12689 13 2z"/>
<path style="fill:#c8cfd9; stroke:none;" d="M14 2L14 12L15 12L14 2z"/>
<path style="fill:#010101; stroke:none;" d="M6 10L6 12L12 11L6 10z"/>
<path style="fill:#c8cfd9; stroke:none;" d="M2 12L3 13L2 12M4 13L4 14L13 14L4 13z"/>
<path style="fill:#010101; stroke:none;" d="M0 14C2.8702 17.2846 13.1298 17.2846 16 14L0 14z"/>
<path style="fill:#c8cfd9; stroke:none;" d="M2 14L3 15L2 14z"/>
</svg>
